<svg width="304" height="71" viewBox="0 0 304 71" fill="none" xmlns="http://www.w3.org/2000/svg">
<g clip-path="url(#clip0_8_1937)">
<path d="M0 35.0432C0 25.3698 3.42219 17.1109 10.2666 10.2666C17.1109 3.42219 25.3698 0 35.0433 0C44.7166 0 52.9754 3.42219 59.8199 10.2666C66.6642 17.1109 70.0865 25.3698 70.0865 35.0432C70.0865 44.7166 66.6643 52.9754 59.8199 59.8198C52.9755 66.6642 44.7166 70.0865 35.0433 70.0865C25.3698 70.0865 17.1109 66.6643 10.2666 59.8198C3.42219 52.9755 0 44.7165 0 35.0432ZM3.83285 35.0432C3.83285 43.6215 6.89 50.9678 13.0043 57.0821C19.1186 63.1964 26.4649 66.2536 35.0433 66.2536C43.6215 66.2536 50.9678 63.1964 57.0821 57.0821C63.1964 50.9678 66.2536 43.6215 66.2536 35.0432C66.2536 26.4649 63.1965 19.1186 57.0821 13.0043C50.9678 6.89 43.6215 3.83285 35.0433 3.83285C26.4649 3.83285 19.1187 6.89 13.0043 13.0043C6.89 19.1186 3.83285 26.4649 3.83285 35.0432ZM13.6888 42.572C13.5063 42.3895 13.5063 42.207 13.6888 42.0245C14.0538 41.6594 14.5101 41.5225 15.0576 41.6138C15.6052 41.705 15.9246 41.7963 16.0158 41.8876C16.6546 42.1613 17.3619 42.7773 18.1376 43.7356C18.9132 44.6938 19.5292 45.3554 19.9856 45.7204C22.1758 47.5456 24.4115 47.6825 26.693 46.1311C26.8755 45.4923 27.1721 44.9447 27.5827 44.4884C27.9933 44.0321 28.3813 43.7127 28.7463 43.5301C29.1114 43.3476 29.7502 43.0739 30.6628 42.7088C27.6512 42.435 25.2101 41.9103 23.3393 41.1346C21.4685 40.3589 19.9855 39.3779 18.8904 38.1915C17.4303 36.5489 16.5405 34.4043 16.2211 31.7578C15.9016 29.1113 16.107 26.693 16.8371 24.5028C17.3846 23.1339 18.1603 21.902 19.1641 20.8068C18.434 18.5254 18.5709 15.9245 19.5748 13.0042C22.495 13.1868 25.1415 14.1906 27.5142 16.0158C32.0772 14.8294 36.8226 14.7838 41.7505 15.8789C42.3893 15.4226 43.3703 14.8523 44.6935 14.1677C46.0168 13.4833 47.6823 13.0954 49.6899 13.0042C50.055 14.008 50.306 15.1944 50.4429 16.5632C50.5797 17.9321 50.5113 19.2097 50.2376 20.3961C52.3364 22.5863 53.4315 25.5066 53.5228 29.1569C53.5228 32.0772 53.0209 34.4955 52.0171 36.4119C51.0133 38.3283 49.2337 39.9254 46.6785 41.2029C44.9446 42.0243 42.6631 42.5262 39.8341 42.7087C41.1118 43.3475 42.0472 44.0091 42.6403 44.6936C43.2336 45.378 43.6214 46.4503 43.804 47.9104V52.2225L43.9408 56.3975C44.2146 56.8539 44.5341 57.2417 44.8991 57.5611C45.2641 57.8806 45.5835 58.1087 45.8573 58.2456C46.131 58.3825 46.2223 58.5878 46.131 58.8616C46.0397 59.1354 45.6747 59.2723 45.036 59.2723C43.4845 59.2723 42.2526 58.7247 41.34 57.6296C41.0662 57.1733 40.9294 56.6258 40.9294 55.9869V49.4163C40.9294 48.6862 40.7468 48.1615 40.3818 47.8421C40.0168 47.5226 39.6517 47.3173 39.2867 47.226V55.8499C39.2867 57.4013 39.4692 58.4052 39.8343 58.8615C40.1993 59.3178 40.4274 59.7741 40.5188 60.2303C40.61 60.3216 40.5415 60.39 40.3134 60.4356C40.0853 60.4812 39.6974 60.4129 39.1498 60.2303C37.9635 59.9566 37.1421 59.3405 36.6858 58.3823C36.2295 57.4241 36.0014 56.3974 36.0014 55.3023V46.8155H34.2219V55.3025C34.2219 56.3976 33.9937 57.4472 33.5374 58.451C32.8986 59.7286 31.7122 60.413 29.9784 60.5043C29.7046 60.413 29.5677 60.3217 29.5677 60.2306C29.659 60.1392 29.9327 59.683 30.389 58.8617C30.4803 58.6792 30.5944 58.3141 30.7313 57.7666C30.8682 57.219 30.9366 56.5802 30.9366 55.8502V47.2262C30.5716 47.3174 30.2293 47.5227 29.9099 47.8422C29.5905 48.1617 29.4308 48.6864 29.4308 49.4164V55.987C29.4308 56.6258 29.2939 57.1734 29.0201 57.6297C28.1988 58.7248 26.9668 59.2724 25.3243 59.2724C24.6854 59.2724 24.3204 59.1355 24.2292 58.8617C24.1378 58.6792 24.1607 58.5195 24.2976 58.3826C24.4346 58.2457 24.6399 58.086 24.9137 57.9035C25.1874 57.721 25.37 57.584 25.4612 57.4928C25.8262 57.219 26.0999 56.854 26.2825 56.3977C26.5563 56.0327 26.6247 55.0745 26.4878 53.5231C26.3509 51.9717 26.3281 50.9678 26.4193 50.5115C24.0466 51.3329 21.6283 50.9221 19.1642 49.2796C18.4342 48.5495 17.7041 47.5 16.974 46.1311C16.4265 45.1272 15.3314 43.9409 13.6888 42.572Z" fill="#DFAF53"/>
</g>
<g clip-path="url(#clip1_8_1937)">
<path d="M131.417 30.8808H113.456C113.233 30.8809 113.02 30.9694 112.863 31.1268C112.705 31.2843 112.617 31.4978 112.617 31.7204V40.5048C112.617 40.7276 112.705 40.9412 112.863 41.0989C113.02 41.2565 113.233 41.3453 113.456 41.3458H120.463V52.2592C120.463 52.2592 118.889 52.7961 114.54 52.7961C109.408 52.7961 102.24 50.92 102.24 35.1516C102.24 19.3802 109.704 17.3046 116.712 17.3046C122.778 17.3046 125.392 18.3736 127.054 18.8878C127.577 19.048 128.06 18.528 128.06 18.0637L130.064 9.5767C130.064 9.35988 129.99 9.0981 129.743 8.92046C129.068 8.43875 124.948 6.13257 114.54 6.13257C102.549 6.13257 90.2503 11.236 90.2503 35.7665C90.2503 60.2987 104.332 63.9539 116.198 63.9539C126.023 63.9539 131.983 59.7538 131.983 59.7538C132.229 59.6176 132.256 59.2743 132.256 59.1167V31.72C132.256 31.257 131.88 30.8808 131.417 30.8808ZM223.979 9.07183C223.98 8.96158 223.959 8.85223 223.918 8.75006C223.876 8.64789 223.815 8.55492 223.738 8.47648C223.66 8.39805 223.568 8.33569 223.466 8.293C223.365 8.25031 223.256 8.22813 223.146 8.22772H213.032C212.922 8.22813 212.812 8.25029 212.711 8.29293C212.609 8.33557 212.516 8.39786 212.439 8.47624C212.361 8.55462 212.299 8.64757 212.257 8.74976C212.215 8.85195 212.194 8.96139 212.195 9.07183L212.197 28.6222H196.434V9.07183C196.435 8.96154 196.414 8.85216 196.372 8.74999C196.331 8.64782 196.269 8.55485 196.192 8.47643C196.114 8.398 196.022 8.33566 195.92 8.29298C195.819 8.2503 195.709 8.22813 195.599 8.22772H185.487C185.264 8.2289 185.051 8.31847 184.894 8.47676C184.738 8.63505 184.65 8.8491 184.651 9.07183V62.0088C184.651 62.4754 185.026 62.8551 185.487 62.8551H195.599C196.062 62.8551 196.434 62.4749 196.434 62.0088V39.3655H212.197L212.17 62.0088C212.17 62.4754 212.545 62.8551 213.008 62.8551H223.145C223.608 62.8551 223.978 62.4749 223.979 62.0088V9.07183ZM150.5 16.0189C150.5 12.3757 147.581 9.43201 143.979 9.43201C140.381 9.43201 137.459 12.3757 137.459 16.0189C137.459 19.6575 140.381 22.6088 143.979 22.6088C147.581 22.6088 150.5 19.6575 150.5 16.0189ZM149.777 50.8421V26.4064C149.778 26.1837 149.69 25.9697 149.533 25.8116C149.376 25.6534 149.163 25.5639 148.94 25.5628H138.859C138.397 25.5628 137.983 26.04 137.983 26.5044V61.5128C137.983 62.5421 138.624 62.8476 139.454 62.8476H148.536C149.533 62.8476 149.777 62.3578 149.777 61.4968V50.8421ZM262.412 25.6425H252.377C251.917 25.6425 251.542 26.0218 251.542 26.4888V52.4453C251.542 52.4453 248.992 54.3116 245.374 54.3116C241.756 54.3116 240.796 52.6692 240.796 49.1249V26.4888C240.796 26.0218 240.421 25.6425 239.961 25.6425H229.776C229.316 25.6425 228.939 26.0218 228.939 26.4888V50.8385C228.939 61.3659 234.805 63.9414 242.874 63.9414C249.493 63.9414 254.83 60.2836 254.83 60.2836C254.83 60.2836 255.084 62.2109 255.199 62.4398C255.314 62.6677 255.614 62.8979 255.937 62.8979L262.417 62.8694C262.877 62.8694 263.254 62.4892 263.254 62.0244L263.25 26.4892C263.25 26.0218 262.875 25.6425 262.412 25.6425ZM285.883 54.2795C282.402 54.1736 280.041 52.5931 280.041 52.5931V35.8297C280.041 35.8297 282.37 34.4015 285.227 34.1459C288.841 33.8223 292.323 34.9144 292.323 43.5376C292.324 52.6314 290.752 54.426 285.883 54.2795ZM289.841 24.4538C284.141 24.4538 280.264 26.9977 280.264 26.9977V9.07227C280.264 8.6048 279.891 8.22772 279.43 8.22772H269.288C269.178 8.22824 269.069 8.25051 268.967 8.29324C268.865 8.33597 268.773 8.39834 268.695 8.47677C268.618 8.5552 268.556 8.64816 268.515 8.75034C268.473 8.85252 268.452 8.96191 268.452 9.07227V62.0088C268.452 62.4754 268.827 62.8551 269.289 62.8551H276.326C276.643 62.8551 276.883 62.6917 277.06 62.4059C277.235 62.1214 277.487 59.9653 277.487 59.9653C277.487 59.9653 281.634 63.8965 289.484 63.8965C298.701 63.8965 303.986 59.22 303.986 42.9031C303.986 26.5858 295.545 24.4538 289.841 24.4538ZM178.842 25.5583H171.256L171.245 15.5327C171.245 15.1534 171.049 14.9637 170.611 14.9637H160.273C159.871 14.9637 159.656 15.1409 159.656 15.5269V25.8873C159.656 25.8873 154.475 27.1379 154.125 27.2394C153.95 27.2901 153.797 27.3961 153.687 27.5416C153.578 27.6871 153.519 27.8642 153.519 28.0461V34.5564C153.519 35.0248 153.893 35.4014 154.355 35.4014H159.656V51.0629C159.656 62.6962 167.813 63.839 173.317 63.839C175.832 63.839 178.841 63.0314 179.337 62.8471C179.638 62.7367 179.812 62.4255 179.812 62.088L179.821 54.9264C179.821 54.459 179.426 54.0819 178.982 54.0819C178.54 54.0819 177.409 54.2617 176.245 54.2617C172.519 54.2617 171.256 52.5285 171.256 50.2851L171.256 35.401H178.842C179.305 35.401 179.679 35.0239 179.679 34.556V26.4011C179.68 26.2908 179.658 26.1814 179.617 26.0793C179.575 25.9772 179.513 25.8843 179.436 25.806C179.358 25.7277 179.265 25.6656 179.164 25.6231C179.062 25.5805 178.953 25.5585 178.842 25.5583Z" fill="#DFAF53"/>
</g>
<defs>
<clipPath id="clip0_8_1937">
<rect width="70.0865" height="70.0865" fill="white"/>
</clipPath>
<clipPath id="clip1_8_1937">
<rect width="213.764" height="57.8213" fill="white" transform="translate(90.2363 6.13257)"/>
</clipPath>
</defs>
</svg>
