<svg width="62" height="138" viewBox="0 0 62 138" fill="none" xmlns="http://www.w3.org/2000/svg">
<path d="M47.7678 133.794L49.0819 111.746L52.7102 105.509C52.7102 105.509 44.4521 108.911 30.6265 108.911C16.8008 108.911 8.66781 105.572 8.66781 105.572L12.7342 112.375L14.1727 133.794C14.1727 136.09 21.6931 137.951 30.9704 137.951C40.2472 137.951 47.7678 136.09 47.7678 133.794ZM43.6228 30.8315L46.3809 19.8537L61.6548 3.67015L57.6291 0.217468L41.4586 17.457L38.2561 30.5726C35.8459 30.4913 33.4345 30.4509 31.0229 30.4514C13.9923 30.4514 0.186157 32.4059 0.186157 34.8162C0.186157 37.2268 13.9923 39.181 31.0229 39.181C48.0533 39.181 61.8592 37.2268 61.8592 34.8162C61.8592 33.0412 54.3715 31.5135 43.6228 30.8315Z" fill="#7383A2"/>
<path d="M42.0184 36.9794C42.0184 36.9794 41.4211 37.1142 39.6639 37.1217C37.9063 37.1291 36.6584 37.1103 36.1613 36.6544C36.0276 36.532 35.9545 36.2889 35.9552 36.1243C35.9567 35.811 36.1775 35.6264 36.4588 35.5109L36.7249 35.9312C36.6092 35.9714 36.5431 36.019 36.5429 36.0697C36.5419 36.3077 38.34 36.4705 39.7153 36.453C41.0908 36.4359 42.7528 36.3218 42.7543 36.0873C42.7543 36.0163 42.6286 35.9495 42.4099 35.8968L42.6748 35.4794C43.0313 35.5909 43.3424 35.8061 43.3417 36.1787C43.3383 36.8121 42.5378 36.9084 42.0184 36.9794Z" fill="#415D95"/>
<path d="M61.6249 3.70212C62.0089 3.25544 61.4261 2.11292 60.3232 1.15058C59.2198 0.188724 58.0139 -0.229177 57.6292 0.217494C57.2449 0.664166 57.828 1.80669 58.9314 2.76854C60.0343 3.73064 61.2406 4.14903 61.6249 3.70212ZM47.0332 79.9388C46.6713 76.4318 54.6512 71.3526 52.6033 71.19C48.1945 71.4438 46.0003 76.3925 43.7821 81.5756C42.9693 83.4751 40.1879 91.5752 38.3637 90.578C36.54 89.5813 40.7281 82.9204 41.902 78.9648C40.5475 79.9649 35.5802 83.8511 34.3 80.2117C32.2419 81.9718 27.844 82.9253 28.3402 78.3018C27.2452 80.2548 24.7878 82.9814 21.8382 81.8484C17.9646 80.3609 24.0827 67.9357 25.6041 68.5626C27.1256 69.1892 25.297 72.0197 24.8181 73.1188C23.7648 75.5377 22.5481 78.5786 23.361 79.201C24.7535 80.2675 28.5428 75.1666 28.6271 75.0545C29.3358 74.1116 31.3549 67.9433 32.9823 68.6516C34.6097 69.3599 28.9232 77.5041 31.0494 79.1203C31.4782 79.4466 33.2327 78.9192 34.3 77.7564C34.9906 77.0042 34.753 75.3383 37.055 69.8105C39.3569 64.2829 41.4085 57.399 42.9872 57.9234C44.5659 58.4476 43.2647 61.9808 42.6984 63.2979C40.0407 69.4796 35.445 79.6923 37.6124 78.9192C39.7797 78.1463 40.9083 78.1009 43.0306 75.6001C45.1528 73.0993 45.055 68.98 46.4696 69.0675C47.8846 69.1553 47.6471 70.4761 47.304 71.4818C48.6962 69.8775 53.9035 66.4987 55.1607 69.8451C56.6498 73.8068 47.7105 79.5295 49.9393 79.2376C52.1125 78.9531 55.6331 76.7078 57.1362 74.6663L61.2738 37.2098C61.2738 37.2098 57.1103 40.6793 30.6225 40.6793C4.13445 40.6793 0.401733 37.2819 0.401733 37.2819L3.92427 71.4708C5.79402 66.1198 10.234 55.2963 17.2326 55.6596C20.4161 55.8249 24.666 61.9976 21.0256 62.2068C19.4847 62.2951 19.3282 59.1257 17.5035 58.6602C16.1868 58.3243 14.3536 59.4022 13.1689 60.5701C10.8062 62.8985 5.72453 72.0853 6.39596 76.6653C7.25141 82.5045 14.3979 74.6363 15.6072 72.3003C16.4587 70.6548 17.034 65.7794 18.8965 66.291C20.7592 66.8025 18.734 71.8339 17.3839 76.2823C15.8672 81.2774 15.0699 86.5465 13.1689 85.9404C11.2677 85.3347 14.3645 78.8863 14.2524 77.7564C12.4655 79.4166 9.17346 83.6195 4.96181 81.5392L7.14947 102.77C7.14947 102.77 12.9638 107.396 30.4789 107.396C47.994 107.396 54.0236 102.842 54.0236 102.842L56.7401 78.2519C54.5176 80.4311 47.4836 84.3009 47.0332 79.9388Z" fill="#7383A2"/>
</svg>
