<svg width="204" height="204" viewBox="0 0 204 204" fill="none" xmlns="http://www.w3.org/2000/svg">
        <path d="M0 0H204V204H0V0Z" fill="#E59F1A"></path>
        <path d="M187.304 155.346C185.811 146.038 179.741 138.224 161.765 130.932C155.521 128.062 148.559 126.007 146.484 121.275C145.748 118.522 145.651 116.97 146.116 115.303C147.454 109.892 153.911 108.205 159.031 109.757C162.327 110.862 165.449 113.403 167.33 117.455C176.134 111.754 176.115 111.793 182.262 107.876C180.013 104.385 178.81 102.776 177.337 101.283C172.043 95.3683 164.829 92.3238 153.291 92.5565C151.294 92.8086 149.277 93.0799 147.279 93.3321C141.52 94.7865 136.032 97.8116 132.813 101.864C123.156 112.821 125.91 131.999 137.661 139.892C149.238 148.579 166.245 150.557 168.416 158.682C170.53 168.63 161.106 171.849 151.74 170.705C144.836 169.27 140.997 165.76 136.847 159.38C129.207 163.801 129.207 163.801 121.353 168.32C123.215 172.392 125.173 174.234 128.295 177.763C143.072 192.753 180.051 192.016 186.683 169.328C186.955 168.552 188.739 163.355 187.304 155.346V155.346ZM110.901 93.7586H91.8194C91.8194 110.241 91.7421 126.608 91.7421 143.091C91.7421 153.582 92.285 163.2 90.5786 166.148C87.7862 171.946 80.5531 171.228 77.2565 170.103C73.9018 168.455 72.1953 166.109 70.2174 162.793C69.6744 161.843 69.2672 161.106 69.1312 161.048C63.9539 164.208 58.7955 167.389 53.6179 170.55C56.1972 175.843 59.9978 180.439 64.8651 183.425C72.1369 187.789 81.9103 189.127 92.1299 186.78C98.7812 184.841 104.521 180.827 107.527 174.719C111.87 166.71 110.94 157.014 110.901 146.291C110.998 128.799 110.901 111.308 110.901 93.7586Z" fill="#1F4899"></path>
      </svg>