<svg width="278" height="74" viewBox="0 0 278 74" fill="none" xmlns="http://www.w3.org/2000/svg">
<g clip-path="url(#clip0_8_1932)">
<path d="M204.809 5.30097C204.809 2.37486 207.23 0 210.216 0H272.553C275.54 0 277.96 2.37486 277.96 5.30097V68.7C277.96 71.6271 275.54 74 272.553 74H210.216C207.23 74 204.809 71.6271 204.809 68.701V5.29999V5.30097Z" fill="#E59F1A"/>
<path d="M0.0379639 61.986H30.5658V51.91H11.0877V13.4727H0.0379639V61.986ZM46.0219 61.986V28.5711H34.9731V61.986H46.0219ZM40.4985 24.0096C44.3507 24.0096 46.7489 21.4436 46.7489 18.235C46.6774 14.9566 44.3507 12.4634 40.5718 12.4634C36.7921 12.4634 34.3205 14.9576 34.3205 18.235C34.3205 21.4436 36.7187 24.0096 40.4261 24.0096H40.4985ZM51.1514 61.986H62.2001V43.3249C62.2001 42.3262 62.2715 41.3275 62.5641 40.6161C63.3615 38.6208 65.1795 36.5536 68.2323 36.5536C72.2312 36.5536 73.831 39.6184 73.831 44.1081V61.985H84.8778V42.826C84.8778 32.5618 79.4268 27.7859 72.1569 27.7859C66.1971 27.7859 63.5797 31.1352 62.1257 33.4168H62.2001V28.5711H51.1514C51.2971 31.7068 51.1514 61.986 51.1514 61.986ZM100.465 13.4727H89.4164V61.986H100.465V51.1521L103.226 47.6572L111.877 61.986H125.469L110.933 41.2431L123.652 27.1318H110.351C110.351 27.1318 101.265 39.7563 100.465 41.2547V13.4727Z" fill="#DFAF53"/>
<path d="M155.015 48.0475C155.16 47.1895 155.379 45.5435 155.379 43.6821C155.379 35.0445 151.017 26.2749 139.532 26.2749C127.248 26.2749 121.578 36.0412 121.578 44.8991C121.578 55.8543 128.484 62.6955 140.549 62.6955C145.347 62.6955 149.78 61.9851 153.416 60.4876L151.962 53.1524C148.98 54.1462 145.928 54.6441 142.149 54.6441C136.988 54.6441 132.483 52.5138 132.119 47.9757L155.015 48.0455V48.0475ZM132.046 40.5337C132.337 37.6823 134.228 33.4751 138.952 33.4751C143.967 33.4751 145.131 37.9667 145.131 40.5337H132.047H132.046ZM182.65 13.4728V30.2666H182.504C180.904 27.916 177.561 26.3477 173.129 26.3477C164.624 26.3477 157.138 33.1898 157.209 44.8787C157.209 55.7136 163.97 62.7702 172.401 62.7702C176.981 62.7702 181.341 60.7729 183.523 56.9238H183.74L184.177 61.986H193.989C193.844 59.6335 193.698 55.5709 193.698 51.5792V13.4718H182.649L182.65 13.4728ZM182.65 46.5189C182.65 47.373 182.577 48.2299 182.431 48.9403C181.779 52.0072 179.162 54.1433 175.963 54.1433C171.385 54.1433 168.404 50.4379 168.404 44.5934C168.404 39.1061 170.949 34.6863 176.036 34.6863C179.452 34.6863 181.85 37.0379 182.505 39.9592C182.65 40.6026 182.65 41.316 182.65 41.9565V46.5179V46.5189Z" fill="#DFAF53"/>
<path d="M226.984 61.9452V28.5303H215.935V61.9452H226.985H226.984ZM221.461 23.9689C225.314 23.9689 227.712 21.4028 227.712 18.1962C227.639 14.9168 225.314 12.4226 221.535 12.4226C217.753 12.4226 215.283 14.9168 215.283 18.1962C215.283 21.4028 217.681 23.9689 221.389 23.9689H221.46H221.461ZM233.099 61.9452H244.147V43.287C244.147 42.2893 244.219 41.2897 244.511 40.5773C245.309 38.581 247.127 36.5147 250.18 36.5147C254.177 36.5147 255.777 39.5787 255.777 44.0712V61.9452H266.824V42.7862C266.824 32.523 261.374 27.7471 254.105 27.7471C248.146 27.7471 245.528 31.0954 244.074 33.3761H244.148V28.5313H233.1C233.244 31.666 233.099 61.9462 233.099 61.9462V61.9452Z" fill="#1F4899"/>
</g>
<defs>
<clipPath id="clip0_8_1932">
<rect width="278" height="74" fill="white"/>
</clipPath>
</defs>
</svg>
