<svg width="90" height="112" viewBox="0 0 90 112" fill="none" xmlns="http://www.w3.org/2000/svg">
<path fill-rule="evenodd" clip-rule="evenodd" d="M50.2412 0.0021847C50.8845 -0.0252697 51.5421 0.161682 52.182 0.221166C53.2521 0.450606 54.3398 0.756527 55.3523 1.19057C55.9923 1.45531 56.5551 1.89981 57.2049 2.11552C58.0782 2.55675 58.6717 3.34639 59.4953 3.83599C60.0621 4.42692 60.5347 4.82304 61.0812 5.42116C61.3622 5.76891 61.61 6.08202 61.8741 6.43632C61.9813 6.88147 62.4029 7.20439 62.5343 7.66653C62.7605 8.18098 62.9696 8.74771 63.0631 9.34191C63.2161 10.0126 63.3658 10.6904 63.3723 11.3683C63.2756 16.6212 63.2089 21.8801 63.3723 27.1428C63.6403 28.6933 63.4971 30.3099 63.9469 31.8114C64.173 32.9337 64.3391 34.0848 64.8254 34.985C65.6641 36.4904 66.3243 38.0958 67.2525 39.6117C67.763 40.1647 68.1592 40.7831 68.6605 41.374C69.6639 42.8134 70.5026 44.4953 71.5701 45.8236C72.2544 47.193 73.001 48.5317 73.7697 49.877C74.3429 51.6047 75.3274 53.1892 75.7549 54.9868C76.3203 57.0106 76.9472 58.9984 77.2525 61.2438C77.9101 64.7991 78.3722 68.3244 78.7919 71.9059C78.7677 73.8414 78.5252 75.7848 78.618 77.721C78.4409 78.3707 78.5631 79.0028 78.3957 79.6604C78.1905 80.571 77.6656 81.4057 77.4714 82.3059C77.5505 82.8098 77.2904 83.2929 77.3845 83.8034C77.7983 84.6486 77.829 85.6187 78.0447 86.5332C78.3892 86.741 78.5696 87.1548 78.969 87.4169C79.6508 87.2908 80.3071 87.615 80.9967 87.5039C81.8164 87.2842 82.6714 87.3019 83.4643 87.1529C84.437 87.0443 85.3934 87.3365 86.3699 87.2398C87.006 87.6418 87.7427 87.9484 88.3094 88.3419C88.8173 88.6445 89.0298 89.2943 89.5442 89.663C89.3671 90.5271 89.5645 91.4351 89.3246 92.2626C88.4349 93.4935 87.6636 94.8355 86.8118 96.052C85.3757 97.4842 84.2292 99.1838 82.8453 100.679C81.1628 102.412 79.675 104.29 77.9578 106.01C75.9418 107.164 74.4573 108.982 72.5381 110.283C71.6766 110.661 70.9844 111.349 70.0705 111.517C69.3123 111.753 68.4782 111.9 67.6892 112H65.6209C64.9777 111.781 64.2587 111.753 63.6357 111.517C63.2363 111.285 62.7984 111.183 62.4022 110.989C61.6682 110.568 61.1433 109.918 60.4654 109.445C60.3059 108.982 59.8882 108.649 59.5816 108.256C59.2241 107.467 58.8554 106.678 58.6573 105.834C58.6534 105.423 58.5076 105.066 58.4377 104.686C56.7421 104.826 55.0288 104.86 53.3259 105.041C51.563 104.95 49.7974 104.933 48.0377 104.95C45.7472 104.62 43.4528 104.513 41.1656 104.026C39.5347 103.654 37.922 103.303 36.3192 102.791C35.1237 102.273 33.8653 101.849 32.7077 101.338C32.5273 101.07 32.1344 101.04 31.9566 100.809C31.3899 101.276 31.0702 101.964 30.5035 102.527C30.1073 103.58 29.419 104.504 28.8732 105.482C28.647 105.753 28.3137 106.013 28.2999 106.36C27.8267 106.754 27.4756 107.153 27.02 107.595C26.1683 107.926 25.4172 108.52 24.5099 108.607C24.2805 108.895 23.6863 108.586 23.4529 108.875C22.6711 109.058 21.8919 108.673 21.1173 108.829C20.1721 108.405 19.1288 108.124 18.2529 107.682C16.6717 106.785 15.093 105.902 13.4942 105.081C10.3005 102.71 7.15735 100.272 4.06682 97.7679C3.09677 96.8011 2.12737 95.8311 1.15731 94.8623C0.893224 94.0897 0.621949 93.3432 0.455261 92.5705C0.653325 92.0149 0.844853 91.507 0.984086 90.9403C1.25144 90.7017 1.5018 90.3389 1.77634 90.1029C2.1241 89.3943 3.09089 89.3623 3.71645 89.0459C4.43288 88.8034 5.12055 88.8197 5.82979 88.6923C6.6848 88.6883 7.31102 88.2125 8.03399 88.0772C8.10001 87.8131 8.30134 87.6536 8.38501 87.3712C8.5517 86.4469 8.12093 85.5187 8.20787 84.597C8.41966 84.0721 8.57654 83.5576 8.78114 83.0086C8.92757 82.6229 9.33742 82.2333 9.66426 82.0418C9.92181 81.9509 9.98456 81.7084 10.3251 81.7326C11.028 81.6659 11.7356 81.6659 12.4385 81.7326C13.0987 81.9686 13.7661 82.1947 14.4198 82.4797C14.7427 82.6392 15.2401 82.5425 15.6539 82.5706C16.0572 82.3065 16.269 81.6908 16.6691 81.4685C17.156 80.4091 17.7776 79.4169 18.5183 78.5165C18.7301 78.423 18.7759 78.2034 19.0046 78.1629C19.3178 77.9857 19.2034 77.5295 19.2236 77.37C18.8935 75.2318 19.1609 73.0805 19.1367 70.9352C19.3073 69.2284 19.491 67.4805 19.7976 65.826C20.0963 64.2788 20.514 62.7413 20.8088 61.1993C21.4487 59.3455 22.2652 57.493 22.9679 55.6921C26.4402 48.6389 30.3754 41.8329 34.0288 34.898C34.7099 33.928 35.2001 32.8435 35.878 31.9016V31.7244C35.7597 30.8067 36.1872 29.8824 36.0551 28.9921V21.414C35.8747 19.8288 36.0238 18.2365 35.878 16.6552C35.8499 16.4781 35.8152 16.3042 35.7911 16.1271V11.6324C35.9198 11.5977 35.8603 11.518 35.878 11.4585C35.763 11.0173 36.0721 10.7042 35.9649 10.2662C36.2009 9.76222 36.3088 9.17522 36.4062 8.63594C36.9298 7.52981 37.6128 6.50639 38.4332 5.5983C39.1836 4.83677 40.0151 4.21447 40.8146 3.5268C41.8886 2.65415 43.1227 2.00766 44.3392 1.36771C45.1524 1.10363 45.8544 0.648016 46.8042 0.487866C47.9128 0.134227 49.0986 -0.0187329 50.2412 0.0021847Z" fill="#7383A2"/>
</svg>
