<svg width="51" height="112" viewBox="0 0 51 112" fill="none" xmlns="http://www.w3.org/2000/svg">
<path d="M25.0488 0.811462L28.0178 6.38794C28.6853 7.41702 29.4085 8.32789 30.2602 9.17619C32.7574 11.6422 35.0851 14.2742 37.2274 17.0542C42.258 23.6597 45.6512 30.9954 48.0744 38.929C49.5277 43.7754 50.3168 48.747 50.3759 53.7741C50.6193 68.8035 45.467 81.7087 35.0788 92.434C33.3891 94.1348 31.5636 95.6952 29.6205 97.0996C28.5915 97.0996 28.1047 96.3104 27.6806 95.5838C26.9082 94.2365 26.3941 92.7567 26.1648 91.2207C25.7997 89.4024 25.5598 87.5842 25.6781 85.7068V84.8585C25.5946 84.6777 24.6872 1.23909 25.0488 0.811462Z" fill="#415D95"/>
<path d="M25.0488 0.627174C24.9271 0.383811 24.8055 0.568072 24.6838 0.686277C24.7429 1.90309 24.3187 2.98779 23.6547 4.02382C22.9246 5.0529 21.9581 5.84209 20.9881 6.69039C15.5994 11.356 11.3579 16.9916 7.96126 23.2947C3.44166 31.7776 1.11233 40.869 0.451776 50.4401C0.149311 53.8923 1.54343 66.0744 2.63161 69.5892C5.60064 78.9205 10.9338 86.7394 17.8418 93.5257C19.5384 95.1597 21.3532 96.6755 23.2306 98.1322C23.7764 98.1322 23.8355 97.6455 23.9606 97.2839C24.2 96.5103 24.3824 95.7201 24.5065 94.9198L25.7233 85.832L25.0488 0.627174Z" fill="#7383A2"/>
<path d="M28.0178 100.792C28.1395 99.4012 28.807 98.247 29.5336 97.0962C28.8035 96.7937 28.2612 96.1923 27.837 95.5213C27.4713 94.886 27.1686 94.2165 26.9331 93.5223C26.0848 90.9774 25.904 88.3074 25.6607 85.7069V84.132C25.3582 84.3753 25.2956 86.4335 25.2956 86.7394C25.1187 89.4879 24.754 92.2211 24.204 94.9198C24.0232 96.0115 23.9015 97.0997 23.2305 98.0696C23.2305 98.1913 23.2305 98.313 23.2896 98.4938C24.3813 101.706 24.6803 104.978 24.8645 108.312V109.529C24.8645 110.982 24.8054 110.676 26.0118 111.163C26.4986 111.343 27.0409 111.406 27.5276 111.767C27.8927 111.767 27.9518 111.465 27.9518 111.222L27.771 109.223V103.646C27.7119 102.673 27.8927 101.706 28.0144 100.795L28.0178 100.792Z" fill="#7383A2"/>
</svg>
