<svg width="111" height="108" viewBox="0 0 111 108" fill="none" xmlns="http://www.w3.org/2000/svg">
<path d="M101.308 83.2317C95.3243 83.083 90.6868 83.6795 86.7974 85.3196C85.6753 85.7666 83.88 85.767 83.7304 87.1839C84.3288 87.7804 84.4037 88.7498 84.9273 89.5697C85.8258 91.0606 87.3954 93.074 88.8167 94.1184C90.3872 95.3111 91.9585 96.5038 93.6033 97.5477C96.5207 99.3374 99.8121 100.381 102.654 102.171C104.3 103.214 105.945 104.557 107.59 105.675C108.413 106.271 108.937 107.241 109.984 107.613V107.39C109.46 106.719 109.311 105.75 108.787 105.004C108.04 104.258 107.291 103.587 106.543 102.841C104.374 99.934 101.682 97.3986 98.7648 95.3111C96.3715 93.6705 91.1352 91.4339 90.1632 88.6748C90.1632 88.6748 90.0879 88.6007 90.0136 88.5261C91.6588 88.377 93.6033 87.7804 95.1747 87.333C97.7176 86.6614 100.036 86.811 102.654 86.1399C103.851 85.8416 105.048 85.4688 106.244 85.0959V84.4252C104.898 83.083 103.926 81.2937 102.505 80.026C98.69 76.7445 94.501 73.5389 90.1632 70.8548C87.8442 69.3634 84.8521 68.394 82.3839 67.1268C81.4871 66.6789 79.9906 66.4557 79.4674 65.71C78.1205 64.0699 77.3725 61.9078 76.4004 59.969C74.2319 55.8676 72.137 51.3197 70.2669 46.9956C68.9213 44.0874 68.0984 41.1791 66.4527 38.4955C58.7487 25.82 50.3714 18.1401 37.5068 10.609C34.739 9.04352 31.448 8.37239 27.9326 7.55255C26.0634 7.47755 24.1929 7.32884 22.3232 7.25385C21.1263 6.73186 19.9294 5.31547 18.8822 4.64434C14.6196 1.95984 3.62375 -3.85531 0.482383 3.8245C-1.53734 8.67067 3.47457 13.4423 5.19421 15.9035C6.46675 17.6182 8.11159 19.5565 9.00924 21.4953C9.53288 22.7622 9.68206 24.1053 10.2057 25.4471C11.403 28.7269 12.5242 32.3812 14.0955 35.4386C14.9184 37.0041 15.8156 38.6442 16.8629 40.061C17.4613 40.8809 18.5081 41.2541 18.733 42.596C17.6861 44.0874 17.6109 46.3244 17.012 48.1883C14.3195 56.6138 15.3672 67.0522 19.1814 73.2406C20.3778 75.104 23.2204 79.2062 27.035 77.6398C30.4012 76.298 29.6532 72.048 30.6248 68.3199C30.85 67.4242 30.7004 66.8285 31.1488 66.2319V66.3815C32.1961 68.4686 33.2429 70.4824 34.2154 72.5699C36.5343 76.223 40.5729 80.026 43.9387 82.5614C45.7344 83.9028 47.1553 86.2144 49.3994 87.0347V86.8106H49.2494C48.8005 86.1395 48.1273 85.8416 47.5293 85.3192C46.1832 83.9778 44.6867 82.3373 43.6399 80.8459C40.499 76.67 37.7308 72.0475 35.2626 67.2755C34.0662 64.9647 33.0185 62.4293 32.0465 60.1181C31.5972 59.2224 31.5972 57.881 30.8496 57.434C29.7275 59.0741 28.0823 60.4909 27.2594 62.5039C25.839 65.71 25.6889 69.6617 25.1653 73.7622C24.8661 73.8376 25.0153 73.7622 24.8657 73.9122C22.4728 73.3148 21.6499 70.8548 20.7518 68.7669C18.5077 63.4733 18.1337 54.9732 20.079 48.8594C20.6027 47.2934 22.8468 42.3727 21.9491 40.8813C21.5003 39.4645 20.0038 38.6442 19.1814 37.5261C18.2093 36.1093 17.1617 34.3205 16.4888 32.7541C14.6935 28.5786 13.7959 23.9557 11.8514 19.7802C10.9537 17.8414 9.3837 15.8289 8.11159 14.0392C6.69073 12.0263 5.11984 10.609 3.99777 8.22325C3.62418 7.40341 3.10011 6.06116 3.69855 5.16633C3.84816 4.56977 4.14695 4.34649 4.74581 4.19735C5.71827 3.37666 8.48604 4.42063 9.45764 4.86805C12.2254 5.98573 14.5439 7.03057 16.8629 8.5961C17.9097 9.34179 19.0318 10.7586 20.3778 11.1315H21.9487C24.3425 11.653 27.0346 11.2806 29.2787 11.9513C33.2433 13.2186 36.8331 15.0828 40.0497 17.0962C49.8482 23.2846 57.9254 32.0829 63.3861 42.596C64.2838 44.3102 64.6574 45.877 65.4802 47.6658C67.0516 51.3197 68.9961 55.0478 70.5661 58.6267C72.137 62.1306 73.6327 65.71 75.8768 68.6182C76.9989 70.1833 81.4863 71.004 83.506 71.8242C85.0021 72.4949 87.321 73.0919 88.6671 73.9118C91.21 75.4769 93.7529 77.2674 96.1467 78.9816C97.3436 79.8765 101.083 81.7407 101.308 83.2317Z" fill="#7383A2"/>
<path d="M25.0148 18.4376C23.7435 18.4376 22.8463 18.5876 21.9487 18.8108V18.96H22.0983C22.6971 20.1531 23.7435 20.9734 24.4912 22.0169C25.09 23.2096 25.6132 24.4031 26.2121 25.5962C26.2865 25.5212 26.3613 25.4471 26.3613 25.4471C27.409 24.701 27.9322 23.5083 27.9322 21.7186C27.4833 21.1971 27.4085 20.6751 27.0345 20.1531C26.5861 19.407 25.6132 19.0345 25.0148 18.4376Z" fill="#7383A2"/>
</svg>
