<svg width="98" height="108" viewBox="0 0 98 108" fill="none" xmlns="http://www.w3.org/2000/svg">
<path d="M44.5222 1.37109C47.1828 -0.155079 50.6482 -0.161973 53.3064 1.37109C66.6798 8.94412 80.0574 16.5053 93.4286 24.0829C95.9435 25.5026 97.6257 28.3075 97.6001 31.2117V76.7739C97.6189 79.7983 95.7704 82.6702 93.1171 84.0578C79.7876 91.5891 66.465 99.1295 53.1379 106.661C50.4223 108.217 46.8874 108.097 44.2566 106.413C40.2605 104.092 36.2574 101.782 32.2609 99.4623C31.4442 98.9744 30.5236 98.5861 29.947 97.7925C30.4567 97.104 31.3682 97.0182 32.1088 96.7175C33.7769 96.186 35.3089 95.3327 36.8414 94.5047C37.2289 94.2389 37.702 94.3408 38.0734 94.5786C41.4906 96.5421 44.8776 98.5627 48.3063 100.507C49.0378 100.931 49.7784 100.369 50.4036 100.02C63.4839 92.6108 76.5802 85.2301 89.6583 77.819C90.1428 77.5854 90.4107 77.0699 90.3714 76.538C90.3805 61.508 90.3736 46.4753 90.3759 31.4453C90.4314 30.8417 90.0828 30.2868 89.5383 30.0397C76.255 22.5429 62.9787 15.0346 49.6977 7.5359C49.4676 7.37737 49.1951 7.29231 48.9158 7.2919C48.6366 7.29149 48.3638 7.37575 48.1332 7.53361C34.8523 15.0346 21.5782 22.5498 8.29727 30.0463C7.75461 30.2937 7.39042 30.8394 7.455 31.4453C7.4573 46.4753 7.455 61.508 7.455 76.5403C7.43197 76.7998 7.48886 77.0602 7.61799 77.2864C7.74713 77.5126 7.94232 77.6936 8.17727 77.8053C11.7214 79.8194 15.27 81.8193 18.8164 83.8265C20.8143 84.9042 23.2673 85.5445 25.4685 84.7188C27.411 84.0206 28.7726 82.0341 28.7355 79.9672C28.7539 65.0249 28.7264 50.0803 28.7493 35.1403C28.7008 34.4769 29.3286 33.9289 29.9722 33.9913C31.6751 33.9798 33.3802 33.9683 35.0831 33.9959C35.7939 33.9798 36.283 34.6941 36.1951 35.3624C36.1883 50.3993 36.2135 65.4366 36.1837 80.4735C36.1883 84.481 34.5454 88.8416 30.8465 90.8024C26.2898 93.1681 20.6576 92.6664 16.1558 90.398C12.2587 88.4486 8.53955 86.1481 4.71153 84.0597C2.05137 82.6798 0.212072 79.7964 0.230798 76.7743V31.2117C0.202901 28.2474 1.95201 25.3915 4.5453 23.9925C17.8725 16.4551 31.1974 8.91195 44.5222 1.37109Z" fill="#7383A2"/>
<path d="M56.1489 32.9323C61.9614 32.5574 68.184 32.7102 73.4145 35.5799C77.4642 37.7789 79.7093 42.3942 79.7808 46.903C79.6677 47.5112 79.0333 47.8466 78.454 47.8049C76.7675 47.8026 75.0807 47.8279 73.3943 47.7934C72.6789 47.821 72.2631 47.16 72.1733 46.5261C71.6887 44.3688 70.5147 42.2322 68.4886 41.1916C65.3782 39.631 61.7719 39.7095 58.3803 39.7421C55.9043 39.8738 53.2419 40.0887 51.1442 41.5478C49.5338 42.6531 49.0447 44.8843 49.6194 46.6812C50.1613 47.9715 51.6475 48.3878 52.8635 48.7715C59.8684 50.6075 67.2913 50.4249 74.1624 52.8411C77.0071 53.8261 79.79 55.741 80.7637 58.7259C82.0374 62.7265 81.4791 67.5084 78.6389 70.72C76.3357 73.363 72.9812 74.8014 69.6354 75.5827C65.1845 76.5773 60.5654 76.6026 56.0453 76.161C51.795 75.6754 47.372 74.5563 44.0908 71.6541C41.2851 69.2126 39.9147 65.4085 40.0507 61.7369C40.0832 61.1168 40.6992 60.6845 41.292 60.7354C42.9902 60.7216 44.6885 60.717 46.3868 60.7377C47.0651 60.6891 47.568 61.2766 47.6028 61.9173C47.9162 63.9727 48.687 66.13 50.4755 67.3487C53.927 69.5803 58.258 69.4275 62.2102 69.4899C65.4845 69.3444 69.16 69.3003 71.832 67.1315C73.2418 65.8945 73.6595 63.8249 73.2785 62.0444C72.8657 60.5412 71.2966 59.8408 69.9492 59.3827C63.0341 57.1906 55.5283 57.986 48.6801 55.507C45.8999 54.5223 43.2115 52.6607 42.1434 49.7983C40.653 45.7472 41.3359 40.7363 44.4738 37.633C47.5333 34.5462 51.9498 33.3574 56.1489 32.9319V32.9323Z" fill="#7383A2"/>
</svg>
