<svg width="201" height="201" viewBox="0 0 201 201" fill="none" xmlns="http://www.w3.org/2000/svg">
        <g clip-path="url(#clip0_23_3)">
        <path d="M78.5533 0L85.2036 36.5773H115.796L122.446 0H78.5533ZM103.814 22.2199H97.1858L95.7565 14.357H105.243L103.814 22.2199Z" fill="#E59F1A"></path>
        <path d="M148.357 14.357L120.976 96.5004L115.537 47.5502H85.4623L80.0239 96.5L52.6428 14.357L0 28.7143V201H201V28.7143L148.357 14.357ZM14.357 186.643V39.6802L43.3171 31.7819L94.9372 186.643H14.357ZM90.8583 129.002L98.313 61.9076H102.687L110.142 129.003L100.5 157.929L90.8583 129.002ZM186.643 86.143H153.143V100.5H186.643V186.643H106.062L157.683 31.7819L186.643 39.6802V86.143H186.643Z" fill="#E59F1A"></path>
        </g>
        <defs>
        <clipPath id="clip0_23_3">
        <rect width="201" height="201" fill="white"></rect>
        </clipPath>
        </defs>
        </svg>